<svg width="316" height="289" viewBox="0 0 316 289" fill="none" xmlns="http://www.w3.org/2000/svg">
<rect y="228.379" width="216.296" height="230.61" rx="26" transform="rotate(-74.9336 0 228.379)" fill="url(#paint0_linear_374_2225)" fill-opacity="0.5"/>
<rect x="36.5078" y="208.861" width="216.296" height="230.61" rx="26" transform="rotate(-74.9336 36.5078 208.861)" fill="url(#paint1_linear_374_2225)" fill-opacity="0.5"/>
<path d="M88.0721 174.325C87.9758 174.584 88.1075 174.872 88.3663 174.968L92.5838 176.538C92.8426 176.634 93.1305 176.502 93.2268 176.243C93.3231 175.985 93.1913 175.697 92.9325 175.6L89.1836 174.205L90.5786 170.457C90.6749 170.198 90.5432 169.91 90.2844 169.814C90.0256 169.717 89.7377 169.849 89.6414 170.108L88.0721 174.325ZM264.791 94.2328C264.887 93.974 264.756 93.6861 264.497 93.5898L260.279 92.0205C260.02 91.9242 259.733 92.0559 259.636 92.3147C259.54 92.5735 259.672 92.8614 259.931 92.9577L263.679 94.3526L262.284 98.1015C262.188 98.3603 262.32 98.6482 262.579 98.7445C262.837 98.8408 263.125 98.7091 263.222 98.4503L264.791 94.2328ZM88.7487 174.954L264.53 94.513L264.114 93.6037L88.3326 174.045L88.7487 174.954Z" fill="#E0FC82"/>
<defs>
<linearGradient id="paint0_linear_374_2225" x1="108.148" y1="228.379" x2="108.148" y2="458.989" gradientUnits="userSpaceOnUse">
<stop stop-color="#333333"/>
<stop offset="1" stop-color="#333333" stop-opacity="0.4"/>
</linearGradient>
<linearGradient id="paint1_linear_374_2225" x1="144.656" y1="208.861" x2="144.656" y2="439.471" gradientUnits="userSpaceOnUse">
<stop stop-color="#333333"/>
<stop offset="1" stop-color="#333333" stop-opacity="0.4"/>
</linearGradient>
</defs>
</svg>
