<svg width="81" height="25" viewBox="0 0 81 25" fill="none" xmlns="http://www.w3.org/2000/svg">
<path d="M0.898861 24V0.727272H6.52386V10.0682H15.6943V0.727272H21.308V24H15.6943V14.6477H6.52386V24H0.898861ZM53.2023 12.3636C53.2023 14.9242 52.7098 17.0947 51.725 18.875C50.7401 20.6553 49.4068 22.0076 47.725 22.9318C46.0508 23.8561 44.172 24.3182 42.0886 24.3182C39.9977 24.3182 38.1151 23.8523 36.4409 22.9205C34.7667 21.9886 33.4371 20.6364 32.4523 18.8636C31.475 17.0833 30.9864 14.9167 30.9864 12.3636C30.9864 9.80303 31.475 7.63258 32.4523 5.85227C33.4371 4.07197 34.7667 2.7197 36.4409 1.79545C38.1151 0.871211 39.9977 0.40909 42.0886 0.40909C44.172 0.40909 46.0508 0.871211 47.725 1.79545C49.4068 2.7197 50.7401 4.07197 51.725 5.85227C52.7098 7.63258 53.2023 9.80303 53.2023 12.3636ZM47.4523 12.3636C47.4523 10.8485 47.2364 9.56818 46.8045 8.52273C46.3803 7.47727 45.7667 6.6856 44.9636 6.14773C44.1682 5.60985 43.2098 5.34091 42.0886 5.34091C40.975 5.34091 40.0167 5.60985 39.2136 6.14773C38.4106 6.6856 37.7932 7.47727 37.3614 8.52273C36.9371 9.56818 36.725 10.8485 36.725 12.3636C36.725 13.8788 36.9371 15.1591 37.3614 16.2045C37.7932 17.25 38.4106 18.0417 39.2136 18.5795C40.0167 19.1174 40.975 19.3864 42.0886 19.3864C43.2098 19.3864 44.1682 19.1174 44.9636 18.5795C45.7667 18.0417 46.3803 17.25 46.8045 16.2045C47.2364 15.1591 47.4523 13.8788 47.4523 12.3636ZM62.8864 24V0.727272H72.5C74.2424 0.727272 75.7462 1.06818 77.0114 1.75C78.2841 2.42424 79.2651 3.36742 79.9545 4.57954C80.6439 5.78409 80.9886 7.18561 80.9886 8.78409C80.9886 10.3902 80.6364 11.7955 79.9318 13C79.2348 14.197 78.2386 15.125 76.9432 15.7841C75.6477 16.4432 74.1098 16.7727 72.3295 16.7727H66.3977V12.3409H71.2841C72.1326 12.3409 72.8409 12.1932 73.4091 11.8977C73.9848 11.6023 74.4205 11.1894 74.7159 10.6591C75.0114 10.1212 75.1591 9.49621 75.1591 8.78409C75.1591 8.06439 75.0114 7.44318 74.7159 6.92045C74.4205 6.39015 73.9848 5.98106 73.4091 5.69318C72.8333 5.4053 72.125 5.26136 71.2841 5.26136H68.5114V24H62.8864Z" fill="white"/>
</svg>
