<svg width="341" height="363" viewBox="0 0 341 363" fill="none" xmlns="http://www.w3.org/2000/svg">
<rect x="60.3047" width="272" height="290" rx="26" transform="rotate(12.0023 60.3047 0)" fill="url(#paint0_linear_374_2224)" fill-opacity="0.5"/>
<rect x="74.3047" y="22" width="272" height="290" rx="26" transform="rotate(12.0023 74.3047 22)" fill="url(#paint1_linear_374_2224)" fill-opacity="0.5"/>
<path d="M188.79 163.942C189.035 164.071 189.337 163.978 189.466 163.733L191.568 159.754C191.696 159.51 191.603 159.208 191.359 159.079C191.115 158.95 190.812 159.043 190.683 159.287L188.815 162.824L185.278 160.956C185.034 160.828 184.732 160.921 184.603 161.165C184.474 161.409 184.567 161.712 184.811 161.841L188.79 163.942ZM168 191.5C156.126 191.5 146.5 181.874 146.5 170H145.5C145.5 182.426 155.574 192.5 168 192.5V191.5ZM146.5 170C146.5 158.126 156.126 148.5 168 148.5V147.5C155.574 147.5 145.5 157.574 145.5 170H146.5ZM168 148.5C177.662 148.5 185.837 154.874 188.546 163.648L189.502 163.352C186.667 154.172 178.113 147.5 168 147.5V148.5ZM186.898 180.261C183.255 186.957 176.157 191.5 168 191.5V192.5C176.538 192.5 183.965 187.744 187.777 180.739L186.898 180.261Z" fill="#E0FC82"/>
<defs>
<linearGradient id="paint0_linear_374_2224" x1="196.305" y1="0" x2="196.305" y2="290" gradientUnits="userSpaceOnUse">
<stop stop-color="#333333"/>
<stop offset="1" stop-color="#333333" stop-opacity="0.4"/>
</linearGradient>
<linearGradient id="paint1_linear_374_2224" x1="210.305" y1="22" x2="210.305" y2="312" gradientUnits="userSpaceOnUse">
<stop stop-color="#333333"/>
<stop offset="1" stop-color="#333333" stop-opacity="0.4"/>
</linearGradient>
</defs>
</svg>
